<svg xmlns="http://www.w3.org/2000/svg" xmlns:xlink="http://www.w3.org/1999/xlink" width="2000" zoomAndPan="magnify" viewBox="0 0 1500 1499.999933" height="2000" preserveAspectRatio="xMidYMid meet" version="1.0"><defs><filter x="0%" y="0%" width="100%" height="100%" id="b2482728fb"><feColorMatrix values="0 0 0 0 1 0 0 0 0 1 0 0 0 0 1 0 0 0 1 0" color-interpolation-filters="sRGB"/></filter><g/><clipPath id="5b3480ff00"><path d="M 0.28125 0.238281 L 985.480469 0.238281 L 985.480469 970.539062 L 0.28125 970.539062 Z M 0.28125 0.238281 " clip-rule="nonzero"/></clipPath><mask id="20300d3784"><g filter="url(#b2482728fb)"><rect x="-587" width="2160" fill="#000000" y="-575.999985" height="2159.999904" fill-opacity="0.984"/></g></mask><clipPath id="1e7cdff85b"><path d="M 0.28125 0.238281 L 985.480469 0.238281 L 985.480469 970.539062 L 0.28125 970.539062 Z M 0.28125 0.238281 " clip-rule="nonzero"/></clipPath><clipPath id="6d2f755644"><rect x="0" width="986" y="0" height="971"/></clipPath><clipPath id="eeb3ef4268"><rect x="0" width="545" y="0" height="436"/></clipPath><clipPath id="1227ccc346"><rect x="0" width="621" y="0" height="430"/></clipPath><clipPath id="ff32b35a54"><rect x="0" width="986" y="0" height="972"/></clipPath></defs><g transform="matrix(1, 0, 0, 1, 257, 246)"><g clip-path="url(#ff32b35a54)"><g clip-path="url(#5b3480ff00)"><g mask="url(#20300d3784)"><g transform="matrix(1, 0, 0, 1, 0, 0.000000000000113687)"><g clip-path="url(#6d2f755644)"><g clip-path="url(#1e7cdff85b)"><path fill="#5c622b" d="M 412.082031 0.746094 C 440.40625 0.171875 466.164062 8.90625 489.351562 26.945312 C 493.496094 31.957031 498.085938 36.546875 503.121094 40.710938 C 503.414062 41.601562 503.710938 42.488281 504.007812 43.378906 C 523.53125 21.703125 547.363281 9.5625 575.503906 6.960938 C 576.890625 6.453125 578.222656 5.859375 579.5 5.1875 C 584.800781 5.207031 590.128906 5.207031 595.488281 5.1875 C 627.371094 8.496094 654.3125 23.300781 676.3125 49.59375 C 678.277344 54.214844 680.941406 58.363281 684.304688 62.027344 C 686.847656 66.984375 689.214844 72.019531 691.410156 77.128906 C 692.019531 78.269531 691.871094 79.304688 690.96875 80.234375 C 693.789062 83.753906 694.976562 87.601562 694.519531 91.78125 C 701.265625 89.714844 708.074219 87.644531 714.949219 85.566406 C 766.152344 77.339844 805.96875 94.957031 834.40625 138.410156 C 847.84375 163.832031 851.839844 190.773438 846.394531 219.234375 C 863.875 219.871094 880.457031 224.457031 896.132812 233 C 928.542969 253.449219 946.902344 282.460938 951.199219 320.042969 C 951.699219 328.871094 951.101562 337.753906 949.425781 346.6875 C 947.515625 360.242188 943.074219 373.417969 936.101562 386.210938 C 933.011719 388.816406 930.789062 392.074219 929.441406 395.980469 C 928.640625 397.046875 927.601562 397.789062 926.332031 398.199219 C 961.832031 418.515625 981.371094 448.710938 984.949219 488.792969 C 986.257812 530.320312 969.683594 563.476562 935.214844 588.269531 C 930.753906 590.5 926.3125 592.71875 921.890625 594.929688 C 939.636719 620.898438 946.148438 649.320312 941.429688 680.195312 C 931.597656 723.414062 905.246094 752.28125 862.382812 766.789062 C 852.035156 769.175781 841.671875 770.804688 831.296875 771.675781 C 837.027344 805.601562 828.882812 835.800781 806.871094 862.269531 C 775.40625 895.71875 737.066406 907.121094 691.855469 896.464844 C 686.414062 893.84375 680.792969 891.621094 674.980469 889.800781 C 663.476562 925.152344 640.238281 950.019531 605.257812 964.40625 C 603.039062 963.855469 600.96875 964.453125 599.042969 966.183594 C 598.746094 965.890625 598.449219 965.589844 598.152344 965.296875 C 596.226562 967.027344 594.15625 967.625 591.9375 967.074219 C 588.921875 968.148438 585.960938 969.035156 583.054688 969.738281 C 579.9375 969.015625 576.53125 969.3125 572.839844 970.625 C 542.148438 971.078125 514.910156 960.722656 491.128906 939.539062 C 489.050781 935.90625 486.238281 932.941406 482.691406 930.65625 C 482.394531 929.769531 482.097656 928.882812 481.804688 927.992188 C 462.28125 949.664062 438.445312 961.804688 410.304688 964.40625 C 408.921875 964.914062 407.589844 965.507812 406.308594 966.183594 C 401.007812 966.167969 395.679688 966.167969 390.320312 966.183594 C 358.441406 962.871094 331.5 948.066406 309.5 921.777344 C 307.535156 917.15625 304.871094 913.007812 301.503906 909.339844 C 298.964844 904.386719 296.597656 899.351562 294.398438 894.242188 C 293.792969 893.105469 293.941406 892.066406 294.84375 891.132812 C 292.019531 887.617188 290.835938 883.769531 291.289062 879.585938 C 284.546875 881.65625 277.738281 883.726562 270.863281 885.804688 C 219.660156 894.03125 179.839844 876.417969 151.40625 832.960938 C 137.960938 807.539062 133.964844 780.597656 139.414062 752.136719 C 121.9375 751.5 105.355469 746.910156 89.675781 738.367188 C 57.265625 717.921875 38.910156 688.90625 34.609375 651.328125 C 34.117188 642.496094 34.707031 633.617188 36.386719 624.683594 C 38.296875 611.125 42.738281 597.953125 49.710938 585.160156 C 52.796875 582.554688 55.015625 579.296875 56.371094 575.390625 C 57.171875 574.324219 58.207031 573.582031 59.480469 573.167969 C 23.976562 552.855469 4.4375 522.65625 0.859375 482.578125 C -0.179688 440.886719 16.398438 407.730469 50.597656 383.101562 C 55.058594 380.871094 59.5 378.652344 63.917969 376.441406 C 37.238281 335.925781 35.757812 294.773438 59.480469 252.984375 C 82.171875 219.363281 113.851562 201.601562 154.511719 199.695312 C 148.785156 165.765625 156.925781 135.570312 178.9375 109.101562 C 210.40625 75.652344 248.746094 64.253906 293.957031 74.90625 C 299.394531 77.527344 305.019531 79.75 310.832031 81.570312 C 325.519531 38.722656 354.535156 12.375 397.871094 2.519531 C 399.5 3.136719 401.128906 2.839844 402.757812 1.632812 C 405.699219 2.421875 408.808594 2.125 412.082031 0.746094 Z M 412.082031 0.746094 " fill-opacity="1" fill-rule="evenodd"/></g></g></g></g></g><g transform="matrix(1, 0, 0, 1, 223, 414)"><g clip-path="url(#eeb3ef4268)"><g fill="#ffe9c6" fill-opacity="1"><g transform="translate(37.719289, 329.657162)"><g><path d="M 66.90625 -5.25 C 65.738281 -4.882812 64.492188 -4.628906 63.171875 -4.484375 C 61.847656 -4.347656 60.585938 -4.21875 59.390625 -4.09375 C 45.921875 -2.664062 34.300781 -3.867188 24.53125 -7.703125 C 14.769531 -11.535156 7.3125 -17.128906 2.15625 -24.484375 C -3 -31.835938 -5.445312 -40.023438 -5.1875 -49.046875 C -4.925781 -58.078125 -1.441406 -67.078125 5.265625 -76.046875 C 11.972656 -85.023438 22.367188 -93.054688 36.453125 -100.140625 C 43.390625 -103.554688 48.703125 -109.707031 52.390625 -118.59375 L 79.4375 -180.171875 C 84.707031 -192.410156 89.929688 -203.90625 95.109375 -214.65625 C 100.296875 -225.40625 106.039062 -237.804688 112.34375 -251.859375 C 113.550781 -254.171875 115.363281 -255.457031 117.78125 -255.71875 C 119.9375 -255.9375 121.929688 -255.421875 123.765625 -254.171875 C 125.847656 -252.929688 127.1875 -251.179688 127.78125 -248.921875 C 128.375 -246.671875 128.175781 -244.523438 127.1875 -242.484375 L 76.515625 -128.4375 C 76.222656 -124.28125 76.882812 -121.4375 78.5 -119.90625 C 80.125 -118.375 82.257812 -117.742188 84.90625 -118.015625 C 85.375 -118.066406 85.84375 -118.175781 86.3125 -118.34375 C 86.789062 -118.519531 87.273438 -118.632812 87.765625 -118.6875 C 99.335938 -121.851562 111.109375 -124.3125 123.078125 -126.0625 C 135.046875 -127.8125 146.984375 -129.925781 158.890625 -132.40625 C 160.535156 -132.820312 162.085938 -132.5 163.546875 -131.4375 C 165.003906 -130.375 165.9375 -129.015625 166.34375 -127.359375 C 167 -125.734375 166.859375 -124.203125 165.921875 -122.765625 C 164.984375 -121.328125 163.5625 -120.382812 161.65625 -119.9375 C 148.03125 -117.757812 134.351562 -115.460938 120.625 -113.046875 C 106.90625 -110.628906 93.453125 -107.378906 80.265625 -103.296875 C 70.847656 -100.367188 64.335938 -95.796875 60.734375 -89.578125 C 57.128906 -83.359375 54.078125 -75.984375 51.578125 -67.453125 L 50.78125 -64.828125 C 50.09375 -62.066406 49.28125 -59.359375 48.34375 -56.703125 C 47.40625 -54.054688 46.441406 -51.707031 45.453125 -49.65625 C 44.015625 -47.070312 42.738281 -45.296875 41.625 -44.328125 C 40.507812 -43.367188 39.351562 -42.820312 38.15625 -42.6875 C 37.425781 -42.613281 36.320312 -42.738281 34.84375 -43.0625 C 28.789062 -45.101562 26.742188 -49.507812 28.703125 -56.28125 L 30.03125 -60.8125 C 30.75 -63.3125 31.503906 -65.941406 32.296875 -68.703125 C 33.097656 -71.460938 34.257812 -73.773438 35.78125 -75.640625 L 36.203125 -74.953125 C 36.972656 -76.972656 36.820312 -78.410156 35.75 -79.265625 C 34.6875 -80.128906 33.4375 -80.488281 32 -80.34375 C 31.75 -80.3125 31.320312 -80.265625 30.71875 -80.203125 C 30.113281 -80.140625 29.601562 -79.84375 29.1875 -79.3125 C 21.132812 -72.613281 15.84375 -65.726562 13.3125 -58.65625 C 10.78125 -51.582031 10.671875 -45.128906 12.984375 -39.296875 C 15.304688 -33.472656 20.101562 -28.9375 27.375 -25.6875 C 34.65625 -22.445312 44.0625 -21.4375 55.59375 -22.65625 C 56.800781 -22.78125 58.003906 -22.90625 59.203125 -23.03125 C 60.410156 -23.164062 61.597656 -23.414062 62.765625 -23.78125 C 79.234375 -26.726562 95.09375 -32.535156 110.34375 -41.203125 C 125.601562 -49.867188 139.421875 -60.628906 151.796875 -73.484375 C 164.171875 -86.347656 174.585938 -100.519531 183.046875 -116 C 191.503906 -131.476562 197.34375 -147.535156 200.5625 -164.171875 C 203.789062 -180.804688 203.6875 -197.328125 200.25 -213.734375 C 197.1875 -228.972656 191.804688 -241.351562 184.109375 -250.875 C 176.410156 -260.394531 167.535156 -267.234375 157.484375 -271.390625 C 147.441406 -275.554688 137.015625 -277.066406 126.203125 -275.921875 C 114.410156 -274.679688 102.976562 -270.070312 91.90625 -262.09375 C 80.84375 -254.113281 72.082031 -242.734375 65.625 -227.953125 C 64.875 -225.921875 63.414062 -224.789062 61.25 -224.5625 C 59.082031 -224.34375 56.984375 -225.21875 54.953125 -227.1875 C 52.921875 -229.164062 52.5 -231.429688 53.6875 -233.984375 C 61.5 -252.066406 72 -266 85.1875 -275.78125 C 98.375 -285.570312 112.179688 -291.226562 126.609375 -292.75 C 139.347656 -294.09375 151.894531 -292.132812 164.25 -286.875 C 176.601562 -281.625 187.539062 -273.054688 197.0625 -261.171875 C 206.582031 -249.296875 213.671875 -234 218.328125 -215.28125 C 222.660156 -197.257812 223.179688 -179.078125 219.890625 -160.734375 C 216.609375 -142.398438 210.28125 -124.648438 200.90625 -107.484375 C 191.53125 -90.328125 179.867188 -74.6875 165.921875 -60.5625 C 151.972656 -46.445312 136.515625 -34.539062 119.546875 -24.84375 C 102.585938 -15.15625 85.039062 -8.625 66.90625 -5.25 Z M 66.90625 -5.25 "/></g></g></g><g fill="#ffe9c6" fill-opacity="1"><g transform="translate(251.937573, 307.014643)"><g><path d="M -12.75 -41.328125 C -13.570312 -49.023438 -11.660156 -57.375 -7.015625 -66.375 C -2.367188 -75.375 3.890625 -84 11.765625 -92.25 C 19.648438 -100.5 28.097656 -107.410156 37.109375 -112.984375 C 46.128906 -118.554688 54.484375 -121.75 62.171875 -122.5625 C 65.546875 -122.914062 68.785156 -122.769531 71.890625 -122.125 C 74.992188 -121.476562 78.175781 -120.71875 81.4375 -119.84375 L 83.3125 -119.328125 C 85.570312 -118.585938 87.765625 -117.960938 89.890625 -117.453125 C 92.015625 -116.941406 94.757812 -116.863281 98.125 -117.21875 C 99.507812 -117.863281 100.5625 -118.222656 101.28125 -118.296875 C 103.6875 -118.554688 105.878906 -117.9375 107.859375 -116.4375 C 109.847656 -114.945312 110.957031 -113.117188 111.1875 -110.953125 C 111.289062 -109.984375 111.046875 -108.863281 110.453125 -107.59375 C 109.859375 -106.320312 108.6875 -104.738281 106.9375 -102.84375 C 104.71875 -100.914062 101.9375 -97.890625 98.59375 -93.765625 C 95.257812 -89.640625 91.972656 -85.035156 88.734375 -79.953125 C 85.503906 -74.867188 82.878906 -69.789062 80.859375 -64.71875 C 78.847656 -59.644531 78.046875 -55.179688 78.453125 -51.328125 C 78.628906 -49.648438 79.273438 -48.140625 80.390625 -46.796875 C 81.503906 -45.453125 83.625 -44.941406 86.75 -45.265625 C 92.28125 -45.847656 98.023438 -48.460938 103.984375 -53.109375 C 109.941406 -57.753906 115.488281 -62.78125 120.625 -68.1875 C 125.769531 -73.601562 129.765625 -77.789062 132.609375 -80.75 C 135.035156 -83.195312 137.207031 -84.519531 139.125 -84.71875 C 142.738281 -85.101562 144.734375 -83.492188 145.109375 -79.890625 C 145.316406 -77.960938 144.554688 -75.9375 142.828125 -73.8125 C 137.804688 -68.414062 131.773438 -62.1875 124.734375 -55.125 C 117.703125 -48.0625 110.332031 -41.867188 102.625 -36.546875 C 94.925781 -31.234375 87.347656 -28.1875 79.890625 -27.40625 C 74.835938 -26.875 70.195312 -27.660156 65.96875 -29.765625 C 61.738281 -31.878906 58.660156 -35.140625 56.734375 -39.546875 C 55.828125 -41.148438 54.410156 -41.851562 52.484375 -41.65625 C 50.804688 -41.476562 48.890625 -40.664062 46.734375 -39.21875 C 44.578125 -37.78125 42.265625 -36.070312 39.796875 -34.09375 L 32.390625 -28.21875 C 29.035156 -25.4375 25.707031 -23.566406 22.40625 -22.609375 C 19.113281 -21.648438 16.023438 -21.015625 13.140625 -20.703125 C 6.160156 -19.972656 0.28125 -21.546875 -4.5 -25.421875 C -9.289062 -29.296875 -12.039062 -34.597656 -12.75 -41.328125 Z M 6.640625 -51.03125 C 7.453125 -43.34375 11.820312 -39.914062 19.75 -40.75 C 24.5625 -41.257812 30.25 -43.800781 36.8125 -48.375 C 43.382812 -52.957031 49.726562 -58.550781 55.84375 -65.15625 C 61.957031 -71.769531 66.910156 -78.375 70.703125 -84.96875 C 74.492188 -91.570312 76.160156 -97.039062 75.703125 -101.375 C 75.347656 -104.738281 74.003906 -107.144531 71.671875 -108.59375 C 69.335938 -110.039062 66.488281 -110.585938 63.125 -110.234375 C 58.0625 -109.703125 52.222656 -107.382812 45.609375 -103.28125 C 38.992188 -99.1875 32.597656 -94.140625 26.421875 -88.140625 C 20.253906 -82.140625 15.269531 -75.835938 11.46875 -69.234375 C 7.664062 -62.628906 6.054688 -56.5625 6.640625 -51.03125 Z M 6.640625 -51.03125 "/></g></g></g><g fill="#ffe9c6" fill-opacity="1"><g transform="translate(391.864677, 292.224579)"><g><path d="M -88.875 80.515625 C -89.539062 74.253906 -87.921875 67.148438 -84.015625 59.203125 C -80.117188 51.253906 -73.320312 43.609375 -63.625 36.265625 C -52.1875 27.273438 -39.5 19.125 -25.5625 11.8125 C -11.625 4.507812 1.832031 -2.140625 14.8125 -8.140625 C 18.0625 -9.691406 21.269531 -11.546875 24.4375 -13.703125 C 27.613281 -15.859375 30.015625 -18.488281 31.640625 -21.59375 L 40.53125 -37.46875 C 40.9375 -38.238281 41.070312 -39.222656 40.9375 -40.421875 C 40.894531 -40.910156 40.632812 -41.132812 40.15625 -41.09375 C 38.71875 -40.9375 36.320312 -39.457031 32.96875 -36.65625 C 24.03125 -29.164062 15.234375 -24.960938 6.578125 -24.046875 C 0.804688 -23.429688 -4.101562 -24.488281 -8.15625 -27.21875 C -12.21875 -29.945312 -14.523438 -33.960938 -15.078125 -39.265625 C -15.535156 -43.585938 -14.679688 -48.71875 -12.515625 -54.65625 C -10.347656 -60.601562 -7.535156 -66.796875 -4.078125 -73.234375 C -0.628906 -79.679688 2.851562 -85.765625 6.375 -91.484375 C 9.90625 -97.210938 12.828125 -101.773438 15.140625 -105.171875 L 19.21875 -111.4375 C 21.507812 -115.09375 24.097656 -117.070312 26.984375 -117.375 C 29.148438 -117.601562 31.101562 -116.957031 32.84375 -115.4375 C 34.582031 -113.914062 35.578125 -111.957031 35.828125 -109.5625 C 36.054688 -107.394531 35.757812 -105.65625 34.9375 -104.34375 C 33.675781 -102.507812 31.441406 -98.929688 28.234375 -93.609375 C 25.023438 -88.296875 21.507812 -82.394531 17.6875 -75.90625 C 13.875 -69.425781 10.320312 -63.335938 7.03125 -57.640625 C 4.175781 -52.472656 2.96875 -47.847656 3.40625 -43.765625 C 3.957031 -38.472656 6.640625 -36.078125 11.453125 -36.578125 C 15.296875 -36.984375 19.953125 -39.484375 25.421875 -44.078125 C 30.898438 -48.671875 36.734375 -54.457031 42.921875 -61.4375 C 49.117188 -68.414062 55.097656 -75.671875 60.859375 -83.203125 C 66.628906 -90.742188 71.664062 -97.71875 75.96875 -104.125 C 80.28125 -110.539062 83.351562 -115.425781 85.1875 -118.78125 C 86.40625 -121.09375 88.335938 -122.390625 90.984375 -122.671875 C 93.390625 -122.929688 95.519531 -122.304688 97.375 -120.796875 C 99.238281 -119.296875 100.296875 -117.34375 100.546875 -114.9375 C 100.753906 -113.007812 100.347656 -111.144531 99.328125 -109.34375 C 98.617188 -109.019531 96.914062 -106.707031 94.21875 -102.40625 C 91.519531 -98.101562 88.25 -92.832031 84.40625 -86.59375 C 80.5625 -80.363281 76.859375 -73.957031 73.296875 -67.375 C 69.734375 -60.789062 66.816406 -55.007812 64.546875 -50.03125 C 62.273438 -45.050781 61.234375 -41.722656 61.421875 -40.046875 C 61.597656 -38.359375 62.648438 -37.617188 64.578125 -37.828125 C 66.742188 -38.054688 69.800781 -39.59375 73.75 -42.4375 C 77.695312 -45.28125 82.113281 -48.90625 87 -53.3125 C 91.882812 -57.71875 96.632812 -62.234375 101.25 -66.859375 C 105.875 -71.484375 109.941406 -75.5625 113.453125 -79.09375 C 115.867188 -81.539062 118.15625 -82.878906 120.3125 -83.109375 C 124.164062 -83.515625 126.257812 -82.15625 126.59375 -79.03125 C 126.695312 -78.0625 126.632812 -76.894531 126.40625 -75.53125 C 126.1875 -74.175781 125.28125 -73.050781 123.6875 -72.15625 L 122.984375 -71.703125 C 118.429688 -68.804688 113.265625 -64.800781 107.484375 -59.6875 C 101.703125 -54.570312 95.765625 -49.203125 89.671875 -43.578125 C 83.578125 -37.960938 77.578125 -32.585938 71.671875 -27.453125 C 65.773438 -22.328125 60.429688 -18.300781 55.640625 -15.375 C 52.453125 -13.332031 48.296875 -8.9375 43.171875 -2.1875 C 38.046875 4.550781 33.160156 11.207031 28.515625 17.78125 L 18.96875 31.171875 C 14.507812 37.234375 9.394531 44.035156 3.625 51.578125 C -2.144531 59.117188 -8.488281 66.351562 -15.40625 73.28125 C -22.332031 80.21875 -29.613281 86.09375 -37.25 90.90625 C -44.894531 95.726562 -52.804688 98.570312 -60.984375 99.4375 C -69.148438 100.300781 -75.679688 98.863281 -80.578125 95.125 C -85.472656 91.394531 -88.238281 86.523438 -88.875 80.515625 Z M -76.96875 79.265625 C -76.28125 85.742188 -71.96875 88.5625 -64.03125 87.71875 C -57.300781 87.007812 -50.328125 83.960938 -43.109375 78.578125 C -35.898438 73.203125 -28.984375 66.757812 -22.359375 59.25 C -15.742188 51.738281 -9.835938 44.367188 -4.640625 37.140625 C 0.546875 29.921875 4.351562 23.988281 6.78125 19.34375 C 9.457031 14.6875 10.75 11.878906 10.65625 10.921875 C 10.5 9.484375 9.09375 8.898438 6.4375 9.171875 C 2.101562 9.628906 -3.332031 11.660156 -9.875 15.265625 C -16.425781 18.867188 -22.8125 22.828125 -29.03125 27.140625 C -35.257812 31.453125 -40.1875 34.890625 -43.8125 37.453125 L -56 46.40625 C -63.90625 52.101562 -69.484375 57.976562 -72.734375 64.03125 C -75.992188 70.09375 -77.40625 75.171875 -76.96875 79.265625 Z M -76.96875 79.265625 "/></g></g></g></g></g><g transform="matrix(1, 0, 0, 1, 206, 150)"><g clip-path="url(#1227ccc346)"><g fill="#ffe9c6" fill-opacity="1"><g transform="translate(30.530206, 324.755123)"><g><path d="M -0.609375 -5.765625 C -1.191406 -11.296875 -0.507812 -18.054688 1.4375 -26.046875 C 3.394531 -34.035156 7.21875 -43.3125 12.90625 -53.875 L 25.109375 -76.328125 C 25.953125 -77.628906 26.257812 -79.363281 26.03125 -81.53125 C 25.695312 -84.65625 24.554688 -87.9375 22.609375 -91.375 C 20.660156 -94.820312 18.5625 -98.007812 16.3125 -100.9375 L 14.609375 -103.296875 C 11.453125 -107.828125 9.066406 -111.953125 7.453125 -115.671875 C 5.847656 -119.398438 4.894531 -122.707031 4.59375 -125.59375 C 3.832031 -132.800781 6.753906 -138.515625 13.359375 -142.734375 C 19.960938 -146.960938 30.191406 -150.296875 44.046875 -152.734375 L 54.796875 -154.59375 C 60.992188 -155.726562 66.007812 -157.109375 69.84375 -158.734375 C 73.675781 -160.359375 77.363281 -164.03125 80.90625 -169.75 L 134.625 -254.953125 C 130.9375 -255.285156 126.785156 -255.445312 122.171875 -255.4375 C 117.554688 -255.4375 112.84375 -255.1875 108.03125 -254.6875 C 96.25 -253.4375 84.269531 -250.585938 72.09375 -246.140625 C 59.914062 -241.691406 50.28125 -235.085938 43.1875 -226.328125 C 41.25 -223.929688 39.710938 -222.367188 38.578125 -221.640625 C 37.441406 -220.910156 36.269531 -220.476562 35.0625 -220.34375 C 32.664062 -220.09375 30.40625 -220.828125 28.28125 -222.546875 C 26.15625 -224.265625 24.960938 -226.328125 24.703125 -228.734375 C 24.453125 -231.140625 25.179688 -233.40625 26.890625 -235.53125 C 37.503906 -247.84375 49.082031 -256.785156 61.625 -262.359375 C 74.164062 -267.941406 87.046875 -271.429688 100.265625 -272.828125 C 111.328125 -273.992188 122.070312 -274.09375 132.5 -273.125 C 142.9375 -272.164062 152.015625 -270.878906 159.734375 -269.265625 C 170.160156 -267.203125 182.664062 -265.601562 197.25 -264.46875 C 211.84375 -263.34375 226.59375 -263.566406 241.5 -265.140625 C 253.28125 -266.390625 264.597656 -268.554688 275.453125 -271.640625 C 286.316406 -274.734375 295.582031 -279.125 303.25 -284.8125 C 305.039062 -286.207031 306.34375 -287.070312 307.15625 -287.40625 C 307.976562 -287.738281 308.875 -287.953125 309.84375 -288.046875 C 312.238281 -288.304688 314.425781 -287.6875 316.40625 -286.1875 C 318.382812 -284.695312 319.515625 -282.628906 319.796875 -279.984375 C 320.203125 -276.128906 318.265625 -272.578125 313.984375 -269.328125 C 309.710938 -266.085938 304.191406 -263.132812 297.421875 -260.46875 C 290.660156 -257.8125 283.613281 -255.488281 276.28125 -253.5 C 268.957031 -251.507812 262.253906 -249.945312 256.171875 -248.8125 C 250.097656 -247.6875 245.738281 -246.988281 243.09375 -246.71875 C 227.21875 -245.03125 211.804688 -244.734375 196.859375 -245.828125 C 181.910156 -246.929688 168.972656 -248.609375 158.046875 -250.859375 L 154.671875 -251.59375 L 102.734375 -170.25 C 101.671875 -168.664062 101.242188 -166.910156 101.453125 -164.984375 C 101.660156 -163.054688 102.9375 -161.914062 105.28125 -161.5625 C 107.632812 -161.207031 109.890625 -161.144531 112.046875 -161.375 L 162.0625 -164.46875 C 167.644531 -164.582031 170.640625 -162.710938 171.046875 -158.859375 C 171.203125 -157.421875 170.738281 -156.035156 169.65625 -154.703125 C 168.582031 -153.367188 166.71875 -152.5625 164.0625 -152.28125 L 106.453125 -148.734375 C 101.171875 -148.179688 96.65625 -147.222656 92.90625 -145.859375 C 89.164062 -144.492188 85.476562 -141.429688 81.84375 -136.671875 L 49.078125 -81.046875 C 48.117188 -78.503906 47.382812 -76.175781 46.875 -74.0625 C 46.363281 -71.957031 46.273438 -69.335938 46.609375 -66.203125 L 48.359375 -53.25 L 48.90625 -44.5625 C 49.132812 -33.15625 47.546875 -23.441406 44.140625 -15.421875 C 40.734375 -7.398438 36.523438 -1.179688 31.515625 3.234375 C 26.515625 7.648438 21.492188 10.128906 16.453125 10.671875 C 12.117188 11.117188 8.347656 9.992188 5.140625 7.296875 C 1.941406 4.597656 0.0234375 0.242188 -0.609375 -5.765625 Z M 45.375 -140.109375 C 36.289062 -138.660156 29.535156 -137.03125 25.109375 -135.21875 C 20.679688 -133.414062 18.707031 -130.226562 19.1875 -125.65625 C 19.363281 -123.976562 19.878906 -121.96875 20.734375 -119.625 C 21.585938 -117.28125 22.894531 -114.625 24.65625 -111.65625 L 30.78125 -102.09375 C 32.820312 -98.90625 34.445312 -97.375 35.65625 -97.5 C 36.613281 -97.601562 37.832031 -98.703125 39.3125 -100.796875 L 60 -136.1875 C 60.4375 -136.71875 60.585938 -137.582031 60.453125 -138.78125 C 60.328125 -139.988281 59.515625 -140.753906 58.015625 -141.078125 C 56.523438 -141.398438 54.820312 -141.460938 52.90625 -141.265625 L 51.8125 -141.140625 Z M 16.703125 -7.59375 C 17.003906 -4.707031 18.359375 -3.390625 20.765625 -3.640625 C 23.648438 -3.953125 26.117188 -5.859375 28.171875 -9.359375 C 30.234375 -12.867188 31.910156 -17.117188 33.203125 -22.109375 C 34.503906 -27.109375 35.390625 -32.003906 35.859375 -36.796875 C 36.328125 -41.585938 36.40625 -45.425781 36.09375 -48.3125 C 35.820312 -50.957031 35.207031 -52.226562 34.25 -52.125 C 33.53125 -52.050781 32.765625 -51.242188 31.953125 -49.703125 L 29.5625 -44.6875 C 24.757812 -34.945312 21.335938 -27.050781 19.296875 -21 C 17.265625 -14.945312 16.398438 -10.476562 16.703125 -7.59375 Z M 16.703125 -7.59375 "/></g></g></g><g fill="#ffe9c6" fill-opacity="1"><g transform="translate(166.129681, 310.422482)"><g><path d="M -14.8125 -36.71875 C -15.320312 -41.539062 -14.664062 -46.84375 -12.84375 -52.625 C -10.425781 -59.675781 -6.5625 -67.375 -1.25 -75.71875 C 4.050781 -84.0625 8.6875 -91.363281 12.65625 -97.625 L 20.46875 -110.125 C 23.15625 -114.539062 26.421875 -116.953125 30.265625 -117.359375 C 32.191406 -117.566406 34.003906 -117.085938 35.703125 -115.921875 C 37.398438 -114.765625 38.363281 -113.101562 38.59375 -110.9375 C 38.851562 -108.539062 38.242188 -106.296875 36.765625 -104.203125 L 28.9375 -92.0625 C 25.800781 -87.101562 22.441406 -81.453125 18.859375 -75.109375 C 15.285156 -68.773438 12.03125 -62.835938 9.09375 -57.296875 C 6.15625 -51.765625 4.09375 -47.597656 2.90625 -44.796875 C 2.695312 -44.535156 2.632812 -43.984375 2.71875 -43.140625 C 2.8125 -42.296875 2.894531 -41.519531 2.96875 -40.8125 C 3.582031 -35.039062 6.175781 -32.394531 10.75 -32.875 C 13.875 -33.207031 17.519531 -34.925781 21.6875 -38.03125 C 25.863281 -41.144531 30.03125 -44.867188 34.1875 -49.203125 C 38.351562 -53.535156 42.226562 -57.710938 45.8125 -61.734375 C 49.394531 -65.753906 52.164062 -68.84375 54.125 -71 L 56.421875 -73.421875 C 57.722656 -75.023438 59.210938 -75.914062 60.890625 -76.09375 C 62.578125 -76.269531 64.078125 -75.882812 65.390625 -74.9375 C 66.703125 -73.988281 67.4375 -72.785156 67.59375 -71.328125 C 67.71875 -70.128906 67.050781 -68.359375 65.59375 -66.015625 L 63.703125 -63.265625 C 52.941406 -47.773438 42.90625 -36.921875 33.59375 -30.703125 C 24.28125 -24.492188 15.773438 -20.984375 8.078125 -20.171875 C 2.078125 -19.535156 -3.078125 -20.632812 -7.390625 -23.46875 C -11.703125 -26.300781 -14.175781 -30.71875 -14.8125 -36.71875 Z M 32.890625 -130.390625 C 32.609375 -133.035156 33.273438 -135.359375 34.890625 -137.359375 C 36.503906 -139.359375 38.515625 -140.484375 40.921875 -140.734375 C 43.566406 -141.015625 45.882812 -140.347656 47.875 -138.734375 C 49.875 -137.117188 51.015625 -134.988281 51.296875 -132.34375 C 51.546875 -129.9375 50.863281 -127.734375 49.25 -125.734375 C 47.644531 -123.742188 45.519531 -122.609375 42.875 -122.328125 C 40.46875 -122.078125 38.265625 -122.753906 36.265625 -124.359375 C 34.265625 -125.972656 33.140625 -127.984375 32.890625 -130.390625 Z M 32.890625 -130.390625 "/></g></g></g><g fill="#ffe9c6" fill-opacity="1"><g transform="translate(228.880517, 303.789823)"><g><path d="M 36.5 -23.921875 C 22.070312 -22.398438 11.140625 -24.039062 3.703125 -28.84375 C -3.734375 -33.65625 -7.898438 -40.265625 -8.796875 -48.671875 C -9.609375 -56.367188 -8.140625 -64.363281 -4.390625 -72.65625 C -0.648438 -80.957031 4.601562 -88.6875 11.375 -95.84375 C 18.15625 -103.007812 25.609375 -108.96875 33.734375 -113.71875 C 41.867188 -118.46875 49.785156 -121.25 57.484375 -122.0625 C 65.421875 -122.894531 72.066406 -121.585938 77.421875 -118.140625 C 82.773438 -114.691406 85.769531 -109.957031 86.40625 -103.9375 C 87.09375 -97.457031 84.960938 -91.707031 80.015625 -86.6875 C 75.066406 -81.675781 68.832031 -77.375 61.3125 -73.78125 C 53.789062 -70.1875 46.132812 -67.242188 38.34375 -64.953125 C 30.5625 -62.671875 24.175781 -61.023438 19.1875 -60.015625 C 16.351562 -59.222656 14.550781 -57.875 13.78125 -55.96875 C 13.019531 -54.070312 12.753906 -52.039062 12.984375 -49.875 C 13.617188 -43.863281 16.8125 -40.066406 22.5625 -38.484375 C 28.3125 -36.898438 34.429688 -36.453125 40.921875 -37.140625 C 54.390625 -38.566406 66.601562 -43.203125 77.5625 -51.046875 C 88.53125 -58.890625 98.316406 -68.128906 106.921875 -78.765625 C 107.992188 -80.097656 109.375 -80.851562 111.0625 -81.03125 C 112.738281 -81.207031 114.296875 -80.828125 115.734375 -79.890625 C 117.171875 -78.953125 117.976562 -77.640625 118.15625 -75.953125 C 118.3125 -74.503906 117.851562 -73.117188 116.78125 -71.796875 C 106 -58.734375 94.007812 -47.921875 80.8125 -39.359375 C 67.613281 -30.796875 52.84375 -25.648438 36.5 -23.921875 Z M 59 -104.328125 C 56.113281 -104.023438 52.414062 -102.785156 47.90625 -100.609375 C 43.394531 -98.429688 38.992188 -95.78125 34.703125 -92.65625 C 30.421875 -89.53125 26.804688 -86.351562 23.859375 -83.125 C 20.910156 -79.894531 19.566406 -77.070312 19.828125 -74.65625 C 20.003906 -72.976562 21.421875 -72.28125 24.078125 -72.5625 L 25.828125 -73.109375 C 27.941406 -73.828125 31.410156 -74.925781 36.234375 -76.40625 C 41.066406 -77.882812 46.109375 -79.628906 51.359375 -81.640625 C 56.617188 -83.660156 61.046875 -86.078125 64.640625 -88.890625 C 68.242188 -91.703125 69.867188 -94.789062 69.515625 -98.15625 C 69.285156 -100.320312 68.132812 -101.960938 66.0625 -103.078125 C 64 -104.191406 61.644531 -104.609375 59 -104.328125 Z M 59 -104.328125 "/></g></g></g><g fill="#ffe9c6" fill-opacity="1"><g transform="translate(342.120505, 291.820543)"><g><path d="M -10.78125 -36.4375 C -11.625 -44.363281 -10.488281 -53.71875 -7.375 -64.5 C -4.257812 -75.28125 -0.0976562 -86.539062 5.109375 -98.28125 C 10.316406 -110.019531 15.707031 -121.101562 21.28125 -131.53125 C 26.863281 -141.96875 31.828125 -150.820312 36.171875 -158.09375 L 51.8125 -182.734375 C 58.375 -191.929688 64.769531 -198.679688 71 -202.984375 C 77.238281 -207.296875 82.640625 -209.691406 87.203125 -210.171875 C 95.378906 -211.035156 99.921875 -207.144531 100.828125 -198.5 C 101.242188 -194.644531 100.578125 -190.007812 98.828125 -184.59375 C 97.085938 -179.1875 94.148438 -173.109375 90.015625 -166.359375 C 84.171875 -157.210938 75.851562 -146.71875 65.0625 -134.875 C 54.28125 -123.039062 42.148438 -109.609375 28.671875 -94.578125 C 24.960938 -90.535156 21.242188 -85.398438 17.515625 -79.171875 C 13.796875 -72.941406 10.832031 -66.488281 8.625 -59.8125 C 6.414062 -53.144531 5.585938 -47.160156 6.140625 -41.859375 C 6.859375 -35.128906 10.101562 -32.066406 15.875 -32.671875 C 20.445312 -33.160156 25.675781 -35.414062 31.5625 -39.4375 C 37.457031 -43.457031 43.601562 -48.601562 50 -54.875 C 56.394531 -61.144531 62.273438 -67.601562 67.640625 -74.25 C 68.929688 -75.851562 70.300781 -76.726562 71.75 -76.875 C 73.664062 -77.082031 75.34375 -76.71875 76.78125 -75.78125 C 78.21875 -74.84375 79.023438 -73.53125 79.203125 -71.84375 C 79.285156 -71.113281 79.117188 -70.421875 78.703125 -69.765625 C 78.285156 -69.117188 77.867188 -68.410156 77.453125 -67.640625 C 71.691406 -60.222656 65.066406 -52.773438 57.578125 -45.296875 C 50.097656 -37.816406 42.378906 -31.460938 34.421875 -26.234375 C 26.460938 -21.015625 18.757812 -18.015625 11.3125 -17.234375 C 5.300781 -16.597656 0.296875 -17.953125 -3.703125 -21.296875 C -7.710938 -24.648438 -10.070312 -29.695312 -10.78125 -36.4375 Z M 41.359375 -129.828125 C 40.710938 -129.035156 40.425781 -128.273438 40.5 -127.546875 C 40.582031 -126.828125 40.984375 -126.503906 41.703125 -126.578125 C 42.898438 -126.710938 45.195312 -128.535156 48.59375 -132.046875 C 51.988281 -135.566406 55.890625 -140.050781 60.296875 -145.5 C 64.710938 -150.957031 68.976562 -156.632812 73.09375 -162.53125 C 77.207031 -168.4375 80.585938 -173.78125 83.234375 -178.5625 C 85.890625 -183.351562 87.09375 -186.945312 86.84375 -189.34375 C 86.6875 -190.789062 86.007812 -191.453125 84.8125 -191.328125 C 83.613281 -191.191406 81.632812 -189.820312 78.875 -187.21875 C 76.113281 -184.613281 72.710938 -180.550781 68.671875 -175.03125 L 52.671875 -150.375 Z M 41.359375 -129.828125 "/></g></g></g><g fill="#ffe9c6" fill-opacity="1"><g transform="translate(416.411686, 283.968087)"><g><path d="M 13.796875 -21.15625 C 6.585938 -20.394531 0.59375 -21.945312 -4.1875 -25.8125 C -8.976562 -29.675781 -11.726562 -34.976562 -12.4375 -41.71875 C -13.269531 -49.65625 -11.3125 -58.1875 -6.5625 -67.3125 C -1.820312 -76.445312 4.546875 -85.144531 12.546875 -93.40625 C 20.554688 -101.675781 28.953125 -108.523438 37.734375 -113.953125 C 46.515625 -119.378906 54.519531 -122.472656 61.75 -123.234375 C 64.382812 -123.515625 67.050781 -123.550781 69.75 -123.34375 C 72.445312 -123.144531 74.957031 -122.441406 77.28125 -121.234375 L 78.4375 -120.625 C 79.707031 -120.03125 80.828125 -119.785156 81.796875 -119.890625 C 82.515625 -119.960938 83.335938 -120.226562 84.265625 -120.6875 C 85.191406 -121.15625 86.191406 -122.054688 87.265625 -123.390625 C 89.628906 -126.304688 92.488281 -130.859375 95.84375 -137.046875 C 99.195312 -143.234375 102.828125 -149.703125 106.734375 -156.453125 C 112.671875 -167.035156 118.691406 -177.390625 124.796875 -187.515625 C 130.898438 -197.640625 137.632812 -204.675781 145 -208.625 C 148.445312 -210.445312 151.609375 -211.507812 154.484375 -211.8125 C 158.097656 -212.195312 161.109375 -211.359375 163.515625 -209.296875 C 165.921875 -207.242188 167.3125 -204.414062 167.6875 -200.8125 C 168.269531 -195.28125 166.71875 -189.28125 163.03125 -182.8125 C 159.34375 -176.34375 154.601562 -170.007812 148.8125 -163.8125 C 143.03125 -157.613281 137.1875 -151.945312 131.28125 -146.8125 C 125.382812 -141.6875 120.53125 -137.585938 116.71875 -134.515625 C 114.6875 -133.078125 111.882812 -129.679688 108.3125 -124.328125 C 104.738281 -118.972656 100.894531 -112.734375 96.78125 -105.609375 C 92.675781 -98.484375 88.832031 -91.144531 85.25 -83.59375 C 81.675781 -76.039062 78.75 -69.226562 76.46875 -63.15625 C 74.195312 -57.082031 73.210938 -52.597656 73.515625 -49.703125 C 73.773438 -47.296875 74.878906 -45.46875 76.828125 -44.21875 C 78.785156 -42.976562 81.09375 -42.492188 83.75 -42.765625 C 88.550781 -43.273438 95.289062 -46.722656 103.96875 -53.109375 C 112.65625 -59.492188 121.253906 -68.492188 129.765625 -80.109375 C 131.234375 -82.203125 132.660156 -83.625 134.046875 -84.375 C 135.429688 -85.132812 136.601562 -85.566406 137.5625 -85.671875 C 140.675781 -85.992188 142.410156 -84.472656 142.765625 -81.109375 C 142.941406 -79.421875 142.09375 -77.140625 140.21875 -74.265625 L 135.421875 -67.921875 C 124.773438 -53.671875 114.957031 -43.03125 105.96875 -36 C 96.988281 -28.96875 89.007812 -25.082031 82.03125 -24.34375 C 76.019531 -23.707031 70.753906 -25.21875 66.234375 -28.875 C 61.722656 -32.53125 58.941406 -36.976562 57.890625 -42.21875 C 57.097656 -42.875 56.222656 -43.148438 55.265625 -43.046875 C 53.335938 -42.847656 51.070312 -41.816406 48.46875 -39.953125 C 45.875 -38.097656 43.234375 -36.054688 40.546875 -33.828125 C 36.742188 -30.753906 32.65625 -28.015625 28.28125 -25.609375 C 23.914062 -23.203125 19.085938 -21.71875 13.796875 -21.15625 Z M 8.359375 -51.953125 C 8.742188 -48.347656 10.128906 -45.632812 12.515625 -43.8125 C 14.898438 -42 17.65625 -41.253906 20.78125 -41.578125 C 25.113281 -42.035156 30.375 -44.597656 36.5625 -49.265625 C 42.75 -53.929688 48.835938 -59.5625 54.828125 -66.15625 C 60.816406 -72.75 65.765625 -79.410156 69.671875 -86.140625 C 73.585938 -92.878906 75.300781 -98.53125 74.8125 -103.09375 C 74.207031 -108.863281 70.535156 -111.394531 63.796875 -110.6875 C 59.234375 -110.207031 53.703125 -107.921875 47.203125 -103.828125 C 40.703125 -99.742188 34.367188 -94.640625 28.203125 -88.515625 C 22.046875 -82.390625 17.0625 -76.085938 13.25 -69.609375 C 9.4375 -63.128906 7.804688 -57.242188 8.359375 -51.953125 Z M 154.890625 -201.28125 C 153.203125 -201.101562 150.394531 -198.863281 146.46875 -194.5625 C 142.550781 -190.257812 138.457031 -185.265625 134.1875 -179.578125 C 129.925781 -173.898438 126.300781 -168.53125 123.3125 -163.46875 C 120.320312 -158.414062 118.914062 -155.046875 119.09375 -153.359375 C 119.144531 -152.878906 119.535156 -152.679688 120.265625 -152.765625 C 122.429688 -152.984375 125.625 -154.957031 129.84375 -158.6875 C 134.070312 -162.425781 138.335938 -166.953125 142.640625 -172.265625 C 146.941406 -177.585938 150.53125 -182.707031 153.40625 -187.625 C 156.289062 -192.550781 157.609375 -196.21875 157.359375 -198.625 C 157.148438 -200.550781 156.328125 -201.4375 154.890625 -201.28125 Z M 154.890625 -201.28125 "/></g></g></g></g></g></g></g></svg>